<svg xmlns="http://www.w3.org/2000/svg" viewBox="0 0 90 30" fill="currentColor">
  <path d="M12.4 12.2a3 3 0 0 0-2.8 1.9h5.7a3 3 0 0 0-2.9-1.9Z" />
  <path
    d="M20.6 0H9.4A9.4 9.4 0 0 0 0 9.4v11.2A9.4 9.4 0 0 0 9.4 30h11.2a9.4 9.4 0 0 0 9.4-9.4V9.4A9.4 9.4 0 0 0 20.6 0Zm-3 16.5h-8a3 3 0 0 0 2.8 1.9 3 3 0 0 0 2-.7h2.8a5.5 5.5 0 1 1 .5-1.2Zm4.7 3.9h-2.7V9.8h2.7Zm25.8-.4-.2 2.1h-2a3.9 3.9 0 0 1-2.7-.8 3.2 3.2 0 0 1-1-2.5v-5.5h-1.8v-2.1h1.8l.6-3.2h1.9v3.2h3.2v2h-3.2v5.6a1 1 0 0 0 1.2 1.2Zm12.4-2.7h-8.8a3.1 3.1 0 0 0 1 2 3.4 3.4 0 0 0 2.3.8 3.8 3.8 0 0 0 1.7-.3 2.7 2.7 0 0 0 1.2-1l2.2.4a4.5 4.5 0 0 1-2 2.3 6.4 6.4 0 0 1-3.2.8 6 6 0 0 1-2.9-.7 5.2 5.2 0 0 1-2-2 5.8 5.8 0 0 1-.7-3 5.8 5.8 0 0 1 .7-2.9 5.2 5.2 0 0 1 2-2 6.4 6.4 0 0 1 5.9 0 5.3 5.3 0 0 1 2 2 5.7 5.7 0 0 1 .7 2.9v.7ZM53 13.7a3.1 3.1 0 0 0-1.1 1.7H58a3.3 3.3 0 0 0-1.1-1.7 3 3 0 0 0-2-.6 3 3 0 0 0-1.9.6Zm17.3-1.4a5.3 5.3 0 0 1 1.2 3.7v6.2h-1.8l-.5-1.8a4.1 4.1 0 0 1-1.4 1.4 3.9 3.9 0 0 1-2.1.6 4.4 4.4 0 0 1-2-.5 3.4 3.4 0 0 1-1.4-1.2 3.5 3.5 0 0 1-.5-1.8 3 3 0 0 1 1.3-2.5 6 6 0 0 1 3.6-1H69a2.9 2.9 0 0 0-.7-1.7 2 2 0 0 0-1.5-.7 2.4 2.4 0 0 0-1.3.4 2.4 2.4 0 0 0-.9 1l-2.2-.4a3.7 3.7 0 0 1 1.6-2.2 5.3 5.3 0 0 1 3-.8 4.3 4.3 0 0 1 3.3 1.3Zm-2 7.2a3 3 0 0 0 .7-2.2h-2.3q-2.4 0-2.4 1.5a1.4 1.4 0 0 0 .5 1 2.2 2.2 0 0 0 1.4.5 2.7 2.7 0 0 0 2-.8Zm5.8 2.6v-11H76l.5 1.6a3.6 3.6 0 0 1 1.2-1.3 3.4 3.4 0 0 1 1.9-.4 3.7 3.7 0 0 1 2 .5 3.3 3.3 0 0 1 1.2 1.5 3.5 3.5 0 0 1 1.3-1.4 3.6 3.6 0 0 1 2-.6 3.6 3.6 0 0 1 2 .6 3.8 3.8 0 0 1 1.5 1.6 5.3 5.3 0 0 1 .5 2.3v6.7h-2.4v-6.5A2.8 2.8 0 0 0 87 14a1.9 1.9 0 0 0-1.5-.8 2 2 0 0 0-1.6.8 2.8 2.8 0 0 0-.6 1.8v6.4h-2.5v-6.4a2.9 2.9 0 0 0-.5-1.8 2 2 0 0 0-3.1 0 2.7 2.7 0 0 0-.7 1.8V22Z" />
</svg>